<svg xmlns="http://www.w3.org/2000/svg" xmlns:xlink="http://www.w3.org/1999/xlink" contentStyleType="text/css" height="281px" preserveAspectRatio="none" style="width:1176px;height:281px;background:#FFFFFF;" version="1.1" viewBox="0 0 1176 281" width="1176px" zoomAndPan="magnify"><defs/><g><!--cluster ffdead7116993bd22bd325b0452398f7--><g id="cluster_ffdead7116993bd22bd325b0452398f7"><path d="M304,6 L418,6 A3.75,3.75 0 0 1 420.5,8.5 L427.5,28.2969 L428,28.2969 A2.5,2.5 0 0 1 430.5,30.7969 L430.5,133.39 A2.5,2.5 0 0 1 428,135.89 L304,135.89 A2.5,2.5 0 0 1 301.5,133.39 L301.5,8.5 A2.5,2.5 0 0 1 304,6 " fill="none" style="stroke:#000000;stroke-width:1.5;"/><line style="stroke:#000000;stroke-width:1.5;" x1="301.5" x2="427.5" y1="28.2969" y2="28.2969"/><text fill="#000000" font-family="sans-serif" font-size="14" font-weight="bold" lengthAdjust="spacing" textLength="113" x="305.5" y="20.9951">bga_database/</text></g><!--cluster 4465612867551b17d609fc31762502db--><g id="cluster_4465612867551b17d609fc31762502db"><path d="M457,6 L535,6 A3.75,3.75 0 0 1 537.5,8.5 L544.5,28.2969 L1167,28.2969 A2.5,2.5 0 0 1 1169.5,30.7969 L1169.5,272.28 A2.5,2.5 0 0 1 1167,274.78 L457,274.78 A2.5,2.5 0 0 1 454.5,272.28 L454.5,8.5 A2.5,2.5 0 0 1 457,6 " fill="none" style="stroke:#000000;stroke-width:1.5;"/><line style="stroke:#000000;stroke-width:1.5;" x1="454.5" x2="544.5" y1="28.2969" y2="28.2969"/><text fill="#000000" font-family="sans-serif" font-size="14" font-weight="bold" lengthAdjust="spacing" textLength="77" x="458.5" y="20.9951">pensions/</text></g><!--entity f6728e82030cecf1d238a1513a73f414--><g id="elem_f6728e82030cecf1d238a1513a73f414"><rect fill="#F1F1F1" height="78.8906" rx="2.5" ry="2.5" style="stroke:#181818;stroke-width:0.5;" width="70" x="318.5" y="41"/><rect fill="#F1F1F1" height="10" style="stroke:#181818;stroke-width:0.5;" width="15" x="368.5" y="46"/><rect fill="#F1F1F1" height="2" style="stroke:#181818;stroke-width:0.5;" width="4" x="366.5" y="48"/><rect fill="#F1F1F1" height="2" style="stroke:#181818;stroke-width:0.5;" width="4" x="366.5" y="52"/><text fill="#000000" font-family="sans-serif" font-size="14" font-weight="bold" lengthAdjust="spacing" textLength="30" x="333.5" y="73.9951">urls</text><text fill="#000000" font-family="sans-serif" font-size="14" lengthAdjust="spacing" textLength="4" x="333.5" y="90.292">&#160;</text><text fill="#000000" font-family="sans-serif" font-size="14" lengthAdjust="spacing" textLength="4" x="333.5" y="106.5889">&#160;</text></g><!--entity 22340b0ea08ce6ce7b50f0ce7ee589ba--><g id="elem_22340b0ea08ce6ce7b50f0ce7ee589ba"><rect fill="#F1F1F1" height="78.8906" rx="2.5" ry="2.5" style="stroke:#181818;stroke-width:0.5;" width="86" x="470.5" y="41"/><rect fill="#F1F1F1" height="10" style="stroke:#181818;stroke-width:0.5;" width="15" x="536.5" y="46"/><rect fill="#F1F1F1" height="2" style="stroke:#181818;stroke-width:0.5;" width="4" x="534.5" y="48"/><rect fill="#F1F1F1" height="2" style="stroke:#181818;stroke-width:0.5;" width="4" x="534.5" y="52"/><text fill="#000000" font-family="sans-serif" font-size="14" font-weight="bold" lengthAdjust="spacing" textLength="46" x="485.5" y="73.9951">views</text><text fill="#000000" font-family="sans-serif" font-size="14" lengthAdjust="spacing" textLength="4" x="485.5" y="90.292">&#160;</text><text fill="#000000" font-family="sans-serif" font-size="14" lengthAdjust="spacing" textLength="4" x="485.5" y="106.5889">&#160;</text></g><!--entity e2cfd2b7aa6eae4a9858fbcb12806d8d--><g id="elem_e2cfd2b7aa6eae4a9858fbcb12806d8d"><rect fill="#F1F1F1" height="78.8906" rx="2.5" ry="2.5" style="stroke:#181818;stroke-width:0.5;" width="329" x="591" y="41"/><rect fill="#F1F1F1" height="10" style="stroke:#181818;stroke-width:0.5;" width="15" x="900" y="46"/><rect fill="#F1F1F1" height="2" style="stroke:#181818;stroke-width:0.5;" width="4" x="898" y="48"/><rect fill="#F1F1F1" height="2" style="stroke:#181818;stroke-width:0.5;" width="4" x="898" y="52"/><text fill="#000000" font-family="sans-serif" font-size="14" font-weight="bold" lengthAdjust="spacing" textLength="289" x="606" y="73.9951">management/commands/import_data</text><text fill="#000000" font-family="sans-serif" font-size="14" lengthAdjust="spacing" textLength="4" x="606" y="90.292">&#160;</text><text fill="#000000" font-family="sans-serif" font-size="14" lengthAdjust="spacing" textLength="4" x="606" y="106.5889">&#160;</text></g><!--entity 48cbb8dd357aecffd77b9601881df8c1--><g id="elem_48cbb8dd357aecffd77b9601881df8c1"><rect fill="#F1F1F1" height="78.8906" rx="2.5" ry="2.5" style="stroke:#181818;stroke-width:0.5;" width="78" x="954.5" y="41"/><rect fill="#F1F1F1" height="10" style="stroke:#181818;stroke-width:0.5;" width="15" x="1012.5" y="46"/><rect fill="#F1F1F1" height="2" style="stroke:#181818;stroke-width:0.5;" width="4" x="1010.5" y="48"/><rect fill="#F1F1F1" height="2" style="stroke:#181818;stroke-width:0.5;" width="4" x="1010.5" y="52"/><text fill="#000000" font-family="sans-serif" font-size="14" font-weight="bold" lengthAdjust="spacing" textLength="38" x="969.5" y="73.9951">apps</text><text fill="#000000" font-family="sans-serif" font-size="14" lengthAdjust="spacing" textLength="4" x="969.5" y="90.292">&#160;</text><text fill="#000000" font-family="sans-serif" font-size="14" lengthAdjust="spacing" textLength="4" x="969.5" y="106.5889">&#160;</text></g><!--entity c584a83ad3889b4edcfdce9d4295ba07--><g id="elem_c584a83ad3889b4edcfdce9d4295ba07"><rect fill="#F1F1F1" height="78.8906" rx="2.5" ry="2.5" style="stroke:#181818;stroke-width:0.5;" width="97" x="707" y="179.89"/><rect fill="#F1F1F1" height="10" style="stroke:#181818;stroke-width:0.5;" width="15" x="784" y="184.89"/><rect fill="#F1F1F1" height="2" style="stroke:#181818;stroke-width:0.5;" width="4" x="782" y="186.89"/><rect fill="#F1F1F1" height="2" style="stroke:#181818;stroke-width:0.5;" width="4" x="782" y="190.89"/><text fill="#000000" font-family="sans-serif" font-size="14" font-weight="bold" lengthAdjust="spacing" textLength="57" x="722" y="212.8851">models</text><text fill="#000000" font-family="sans-serif" font-size="14" lengthAdjust="spacing" textLength="4" x="722" y="229.182">&#160;</text><text fill="#000000" font-family="sans-serif" font-size="14" lengthAdjust="spacing" textLength="4" x="722" y="245.4789">&#160;</text></g><!--entity 10e267b40cf1577138b31b4c374c47b3--><g id="elem_10e267b40cf1577138b31b4c374c47b3"><rect fill="#F1F1F1" height="78.8906" rx="2.5" ry="2.5" style="stroke:#181818;stroke-width:0.5;" width="87" x="1067" y="41"/><rect fill="#F1F1F1" height="10" style="stroke:#181818;stroke-width:0.5;" width="15" x="1134" y="46"/><rect fill="#F1F1F1" height="2" style="stroke:#181818;stroke-width:0.5;" width="4" x="1132" y="48"/><rect fill="#F1F1F1" height="2" style="stroke:#181818;stroke-width:0.5;" width="4" x="1132" y="52"/><text fill="#000000" font-family="sans-serif" font-size="14" font-weight="bold" lengthAdjust="spacing" textLength="47" x="1082" y="73.9951">admin</text><text fill="#000000" font-family="sans-serif" font-size="14" lengthAdjust="spacing" textLength="4" x="1082" y="90.292">&#160;</text><text fill="#000000" font-family="sans-serif" font-size="14" lengthAdjust="spacing" textLength="4" x="1082" y="106.5889">&#160;</text></g><!--entity 63968ac3b974ea2bc7117d0c12ff740e--><g id="elem_63968ac3b974ea2bc7117d0c12ff740e"><rect fill="#F1F1F1" height="78.8906" rx="2.5" ry="2.5" style="stroke:#181818;stroke-width:0.5;" width="277" x="7" y="41"/><rect fill="#F1F1F1" height="10" style="stroke:#181818;stroke-width:0.5;" width="15" x="264" y="46"/><rect fill="#F1F1F1" height="2" style="stroke:#181818;stroke-width:0.5;" width="4" x="262" y="48"/><rect fill="#F1F1F1" height="2" style="stroke:#181818;stroke-width:0.5;" width="4" x="262" y="52"/><text fill="#000000" font-family="sans-serif" font-size="14" font-weight="bold" lengthAdjust="spacing" textLength="237" x="22" y="73.9951">data/processors/convert_date</text><text fill="#000000" font-family="sans-serif" font-size="14" lengthAdjust="spacing" textLength="4" x="22" y="90.292">&#160;</text><text fill="#000000" font-family="sans-serif" font-size="14" lengthAdjust="spacing" textLength="4" x="22" y="106.5889">&#160;</text></g><!--link 22340b0ea08ce6ce7b50f0ce7ee589ba to c584a83ad3889b4edcfdce9d4295ba07--><g id="link_22340b0ea08ce6ce7b50f0ce7ee589ba_c584a83ad3889b4edcfdce9d4295ba07"><path codeLine="41" d="M545.8,120.15 C554.2,128.71 563.68,137.21 573.5,143.89 C614.87,172 662.7746,190.4839 701.0846,202.7239 " fill="none" id="22340b0ea08ce6ce7b50f0ce7ee589ba-to-c584a83ad3889b4edcfdce9d4295ba07" style="stroke:#181818;stroke-width:1.0;"/><polygon fill="#181818" points="706.8,204.55,699.4443,198.0007,702.0372,203.0283,697.0096,205.6212,706.8,204.55" style="stroke:#181818;stroke-width:1.0;"/></g><!--link e2cfd2b7aa6eae4a9858fbcb12806d8d to c584a83ad3889b4edcfdce9d4295ba07--><g id="link_e2cfd2b7aa6eae4a9858fbcb12806d8d_c584a83ad3889b4edcfdce9d4295ba07"><path codeLine="42" d="M755.5,120.31 C755.5,138.96 755.5,155.24 755.5,173.85 " fill="none" id="e2cfd2b7aa6eae4a9858fbcb12806d8d-to-c584a83ad3889b4edcfdce9d4295ba07" style="stroke:#181818;stroke-width:1.0;"/><polygon fill="#181818" points="755.5,179.85,759.5,170.85,755.5,174.85,751.5,170.85,755.5,179.85" style="stroke:#181818;stroke-width:1.0;"/></g><!--link 10e267b40cf1577138b31b4c374c47b3 to c584a83ad3889b4edcfdce9d4295ba07--><g id="link_10e267b40cf1577138b31b4c374c47b3_c584a83ad3889b4edcfdce9d4295ba07"><path codeLine="43" d="M1079.19,120.18 C1070.4,129.05 1060.27,137.69 1049.5,143.89 C971.02,189.09 871.2409,206.4763 810.3009,213.4663 " fill="none" id="10e267b40cf1577138b31b4c374c47b3-to-c584a83ad3889b4edcfdce9d4295ba07" style="stroke:#181818;stroke-width:1.0;"/><polygon fill="#181818" points="804.34,214.15,813.7372,217.0983,809.3074,213.5802,812.8255,209.1505,804.34,214.15" style="stroke:#181818;stroke-width:1.0;"/></g><!--SRC=[ZP3BZjD044Nt_Wfhbf56wNTLR_WHX52zEh98R2iECqY8VwT9W05baLbsgUkUKvUEn-NrD7sRviCWosbTPfilOucr84da2iaei83te4vyQ0sIi_7ZiDifNMY_dXUnRLlEsrwM-SNEbyzzRhlTC0oVXfNa2nriVE83_PeJqsRxfv6siJKrqfvRQesi8R36aDcb76B51kFtVtnQWO26mKKd9irhY4W- -qWGM_BfwlFrVDn-St-yaLURjscPjnirfPAB3rWWPy_zfk9ga-YXXEo2yd_K469ox8mSYXKnuEnQ5m2pZ9NfIdsPxFKFzctLWZGD34J5o19LpDXOkADTKTJhwedchdZg_tjtf_xIRJ_rX5k7T1UQK9XHDMQWta9J0Ax5UKIl3SLVGsbTxtKaOoACf16xU3BjTc9LKwYPoS5DPr4xtkzwPw409zTxpm0-8aVFII8aIS3nHjNJDFyj_s5np_hyuQ7KyB34zyKyFE1TCJy1]--></g></svg>