<svg xmlns="http://www.w3.org/2000/svg" xmlns:xlink="http://www.w3.org/1999/xlink" contentStyleType="text/css" height="652px" preserveAspectRatio="none" style="width:1474px;height:652px;background:#FFFFFF;" version="1.1" viewBox="0 0 1474 652" width="1474px" zoomAndPan="magnify"><defs/><g><!--cluster d2a57dc1d883fd21fb9951699df71cc7--><g id="cluster_d2a57dc1d883fd21fb9951699df71cc7"><polygon fill="none" points="536.5,24.15,546.5,14.15,924.5,14.15,924.5,534.08,914.5,544.08,536.5,544.08,536.5,24.15" style="stroke:#181818;stroke-width:1.0;"/><line style="stroke:#181818;stroke-width:1.0;" x1="914.5" x2="924.5" y1="24.15" y2="14.15"/><line style="stroke:#181818;stroke-width:1.0;" x1="536.5" x2="914.5" y1="24.15" y2="24.15"/><line style="stroke:#181818;stroke-width:1.0;" x1="914.5" x2="914.5" y1="24.15" y2="544.08"/><text fill="#000000" font-family="sans-serif" font-size="14" font-weight="bold" lengthAdjust="spacing" textLength="31" x="711" y="40.1451">App</text></g><!--cluster b439f9bbe0a4c866b54c7399f0d21e37--><g id="cluster_b439f9bbe0a4c866b54c7399f0d21e37"><polygon fill="none" points="36.5,32.3,46.5,22.3,446.5,22.3,446.5,534.08,436.5,544.08,36.5,544.08,36.5,32.3" style="stroke:#181818;stroke-width:1.0;"/><line style="stroke:#181818;stroke-width:1.0;" x1="436.5" x2="446.5" y1="32.3" y2="22.3"/><line style="stroke:#181818;stroke-width:1.0;" x1="36.5" x2="436.5" y1="32.3" y2="32.3"/><line style="stroke:#181818;stroke-width:1.0;" x1="436.5" x2="436.5" y1="32.3" y2="544.08"/><text fill="#000000" font-family="sans-serif" font-size="14" font-weight="bold" lengthAdjust="spacing" textLength="73" x="201" y="48.2951">Migration</text></g><!--cluster e8a48653851e28c69d0506508fb27fc5--><g id="cluster_e8a48653851e28c69d0506508fb27fc5"><polygon fill="none" points="948.5,16,958.5,6,1398.5,6,1398.5,534.08,1388.5,544.08,948.5,544.08,948.5,16" style="stroke:#181818;stroke-width:1.0;"/><line style="stroke:#181818;stroke-width:1.0;" x1="1388.5" x2="1398.5" y1="16" y2="6"/><line style="stroke:#181818;stroke-width:1.0;" x1="948.5" x2="1388.5" y1="16" y2="16"/><line style="stroke:#181818;stroke-width:1.0;" x1="1388.5" x2="1388.5" y1="16" y2="544.08"/><text fill="#000000" font-family="sans-serif" font-size="14" font-weight="bold" lengthAdjust="spacing" textLength="71" x="1134" y="31.9951">Postgres</text></g><!--entity a8e1d907ab99a1fa5c52a79c804bdcd2--><g id="elem_a8e1d907ab99a1fa5c52a79c804bdcd2"><rect fill="#F1F1F1" height="111.4844" rx="2.5" ry="2.5" style="stroke:#181818;stroke-width:0.5;" width="355" x="553" y="54.15"/><rect fill="#F1F1F1" height="10" style="stroke:#181818;stroke-width:0.5;" width="15" x="888" y="59.15"/><rect fill="#F1F1F1" height="2" style="stroke:#181818;stroke-width:0.5;" width="4" x="886" y="61.15"/><rect fill="#F1F1F1" height="2" style="stroke:#181818;stroke-width:0.5;" width="4" x="886" y="65.15"/><text fill="#000000" font-family="sans-serif" font-size="14" font-weight="bold" lengthAdjust="spacing" textLength="107" x="568" y="87.1451">bga-pensions</text><text fill="#000000" font-family="sans-serif" font-size="14" lengthAdjust="spacing" textLength="4" x="568" y="103.442">&#160;</text><text fill="#000000" font-family="sans-serif" font-size="14" lengthAdjust="spacing" textLength="315" x="568" y="119.7389">image: ghcr.io/datamade/bga-pensions:latest</text><text fill="#000000" font-family="sans-serif" font-size="14" lengthAdjust="spacing" textLength="99" x="568" y="136.0357">restart: always</text><text fill="#000000" font-family="sans-serif" font-size="14" lengthAdjust="spacing" textLength="4" x="568" y="152.3326">&#160;</text></g><!--entity 3ef9b52d9eb49b7db9d6a3e84fef0d1c--><g id="elem_3ef9b52d9eb49b7db9d6a3e84fef0d1c"><ellipse cx="587.5" cy="263.79" fill="#F1F1F1" rx="8" ry="8" style="stroke:#181818;stroke-width:0.5;"/><text fill="#000000" font-family="sans-serif" font-size="14" lengthAdjust="spacing" textLength="36" x="569.5" y="293.7851">8000</text></g><!--entity b946d8b8a8e75fff7846593951ac6a21--><g id="elem_b946d8b8a8e75fff7846593951ac6a21"><rect fill="#F1F1F1" height="39.2969" rx="2.5" ry="2.5" style="stroke:#181818;stroke-width:0.5;" width="61" x="552" y="488.79"/><polygon fill="#F1F1F1" points="596,493.79,596,507.79,608,507.79,608,499.79,602,493.79,596,493.79" style="stroke:#181818;stroke-width:0.5;"/><line style="stroke:#181818;stroke-width:0.5;" x1="602" x2="602" y1="493.79" y2="499.79"/><line style="stroke:#181818;stroke-width:0.5;" x1="608" x2="602" y1="499.79" y2="499.79"/><text fill="#000000" font-family="sans-serif" font-size="14" lengthAdjust="spacing" textLength="31" x="562" y="514.7851">/app</text></g><!--entity 0d7526d5bb9869748d67ebbe34dc8fb3--><g id="elem_0d7526d5bb9869748d67ebbe34dc8fb3"><rect fill="#F1F1F1" height="39.2969" rx="2.5" ry="2.5" style="stroke:#181818;stroke-width:0.5;" width="174" x="648.5" y="488.79"/><polygon fill="#F1F1F1" points="805.5,493.79,805.5,507.79,817.5,507.79,817.5,499.79,811.5,493.79,805.5,493.79" style="stroke:#181818;stroke-width:0.5;"/><line style="stroke:#181818;stroke-width:0.5;" x1="811.5" x2="811.5" y1="493.79" y2="499.79"/><line style="stroke:#181818;stroke-width:0.5;" x1="817.5" x2="811.5" y1="499.79" y2="499.79"/><text fill="#000000" font-family="sans-serif" font-size="14" lengthAdjust="spacing" textLength="144" x="658.5" y="514.7851">/app/node_modules/</text></g><!--entity e6abfc52d9acbb9035ccfeb39be7d55f--><g id="elem_e6abfc52d9acbb9035ccfeb39be7d55f"><rect fill="#F1F1F1" height="95.1875" rx="2.5" ry="2.5" style="stroke:#181818;stroke-width:0.5;" width="355" x="64" y="62.3"/><rect fill="#F1F1F1" height="10" style="stroke:#181818;stroke-width:0.5;" width="15" x="399" y="67.3"/><rect fill="#F1F1F1" height="2" style="stroke:#181818;stroke-width:0.5;" width="4" x="397" y="69.3"/><rect fill="#F1F1F1" height="2" style="stroke:#181818;stroke-width:0.5;" width="4" x="397" y="73.3"/><text fill="#000000" font-family="sans-serif" font-size="14" font-weight="bold" lengthAdjust="spacing" textLength="187" x="79" y="95.2951">bga-pensions-migration</text><text fill="#000000" font-family="sans-serif" font-size="14" lengthAdjust="spacing" textLength="4" x="79" y="111.592">&#160;</text><text fill="#000000" font-family="sans-serif" font-size="14" lengthAdjust="spacing" textLength="315" x="79" y="127.8889">image: ghcr.io/datamade/bga-pensions:latest</text><text fill="#000000" font-family="sans-serif" font-size="14" lengthAdjust="spacing" textLength="4" x="79" y="144.1857">&#160;</text></g><!--entity 5f4b743f1a4d659171f9d31f4fd8bcdf--><g id="elem_5f4b743f1a4d659171f9d31f4fd8bcdf"><rect fill="#F1F1F1" height="39.2969" rx="2.5" ry="2.5" style="stroke:#181818;stroke-width:0.5;" width="61" x="370" y="488.79"/><polygon fill="#F1F1F1" points="414,493.79,414,507.79,426,507.79,426,499.79,420,493.79,414,493.79" style="stroke:#181818;stroke-width:0.5;"/><line style="stroke:#181818;stroke-width:0.5;" x1="420" x2="420" y1="493.79" y2="499.79"/><line style="stroke:#181818;stroke-width:0.5;" x1="426" x2="420" y1="499.79" y2="499.79"/><text fill="#000000" font-family="sans-serif" font-size="14" lengthAdjust="spacing" textLength="31" x="380" y="514.7851">/app</text></g><!--entity d2a21ede15a17732e0be9ba655f1887a--><g id="elem_d2a21ede15a17732e0be9ba655f1887a"><rect fill="#F1F1F1" height="39.2969" rx="2.5" ry="2.5" style="stroke:#181818;stroke-width:0.5;" width="282" x="52.5" y="488.79"/><polygon fill="#F1F1F1" points="317.5,493.79,317.5,507.79,329.5,507.79,329.5,499.79,323.5,493.79,317.5,493.79" style="stroke:#181818;stroke-width:0.5;"/><line style="stroke:#181818;stroke-width:0.5;" x1="323.5" x2="323.5" y1="493.79" y2="499.79"/><line style="stroke:#181818;stroke-width:0.5;" x1="329.5" x2="323.5" y1="499.79" y2="499.79"/><text fill="#000000" font-family="sans-serif" font-size="14" lengthAdjust="spacing" textLength="252" x="62.5" y="514.7851">/app/bga_database/local_settings.py</text></g><!--entity 1937b891a66790c564b2ee94fcc89c00--><g id="elem_1937b891a66790c564b2ee94fcc89c00"><rect fill="#F1F1F1" height="127.7813" rx="2.5" ry="2.5" style="stroke:#181818;stroke-width:0.5;" width="417" x="965" y="46"/><rect fill="#F1F1F1" height="10" style="stroke:#181818;stroke-width:0.5;" width="15" x="1362" y="51"/><rect fill="#F1F1F1" height="2" style="stroke:#181818;stroke-width:0.5;" width="4" x="1360" y="53"/><rect fill="#F1F1F1" height="2" style="stroke:#181818;stroke-width:0.5;" width="4" x="1360" y="57"/><text fill="#000000" font-family="sans-serif" font-size="14" font-weight="bold" lengthAdjust="spacing" textLength="184" x="980" y="78.9951">bga-pensions-postgres</text><text fill="#000000" font-family="sans-serif" font-size="14" lengthAdjust="spacing" textLength="4" x="980" y="95.292">&#160;</text><text fill="#000000" font-family="sans-serif" font-size="14" lengthAdjust="spacing" textLength="136" x="980" y="111.5889">image: postgres:10</text><text fill="#000000" font-family="sans-serif" font-size="14" lengthAdjust="spacing" textLength="310" x="980" y="127.8857">environment: POSTGRES_DB=bga_pensions</text><text fill="#000000" font-family="sans-serif" font-size="14" lengthAdjust="spacing" textLength="377" x="980" y="144.1826">environment: POSTGRES_HOST_AUTH_METHOD=trust</text><text fill="#000000" font-family="sans-serif" font-size="14" lengthAdjust="spacing" textLength="4" x="980" y="160.4795">&#160;</text></g><!--entity 9c41b0dc0d9393d8a4c1a8e0ff9f1547--><g id="elem_9c41b0dc0d9393d8a4c1a8e0ff9f1547"><ellipse cx="1295.5" cy="263.79" fill="#F1F1F1" rx="8" ry="8" style="stroke:#181818;stroke-width:0.5;"/><text fill="#000000" font-family="sans-serif" font-size="14" lengthAdjust="spacing" textLength="36" x="1277.5" y="293.7851">5432</text></g><!--entity be37e40b068362ad529067845ac94bd0--><g id="elem_be37e40b068362ad529067845ac94bd0"><rect fill="#F1F1F1" height="39.2969" rx="2.5" ry="2.5" style="stroke:#181818;stroke-width:0.5;" width="189" x="1079" y="488.79"/><polygon fill="#F1F1F1" points="1251,493.79,1251,507.79,1263,507.79,1263,499.79,1257,493.79,1251,493.79" style="stroke:#181818;stroke-width:0.5;"/><line style="stroke:#181818;stroke-width:0.5;" x1="1257" x2="1257" y1="493.79" y2="499.79"/><line style="stroke:#181818;stroke-width:0.5;" x1="1263" x2="1257" y1="499.79" y2="499.79"/><text fill="#000000" font-family="sans-serif" font-size="14" lengthAdjust="spacing" textLength="159" x="1089" y="514.7851">/var/lib/postgresql/data</text></g><!--entity 1624c420083928ef3e240dd88f2e52f0--><g id="elem_1624c420083928ef3e240dd88f2e52f0"><ellipse cx="493.5" cy="398.79" fill="#F1F1F1" rx="8" ry="8" style="stroke:#181818;stroke-width:0.5;"/><text fill="#000000" font-family="sans-serif" font-size="14" lengthAdjust="spacing" textLength="36" x="475.5" y="428.7851">8000</text></g><!--entity 6b526155c1fdb850ad4b5277834fa502--><g id="elem_6b526155c1fdb850ad4b5277834fa502"><ellipse cx="1444.5" cy="398.79" fill="#F1F1F1" rx="8" ry="8" style="stroke:#181818;stroke-width:0.5;"/><text fill="#000000" font-family="sans-serif" font-size="14" lengthAdjust="spacing" textLength="45" x="1422" y="428.7851">32001</text></g><!--entity 58b9e70b65a77700ba66e9c64d6b9f89--><g id="elem_58b9e70b65a77700ba66e9c64d6b9f89"><rect fill="#F1F1F1" height="39.2969" rx="2.5" ry="2.5" style="stroke:#181818;stroke-width:0.5;" width="34" x="453.5" y="607.08"/><polygon fill="#F1F1F1" points="470.5,612.08,470.5,626.08,482.5,626.08,482.5,618.08,476.5,612.08,470.5,612.08" style="stroke:#181818;stroke-width:0.5;"/><line style="stroke:#181818;stroke-width:0.5;" x1="476.5" x2="476.5" y1="612.08" y2="618.08"/><line style="stroke:#181818;stroke-width:0.5;" x1="482.5" x2="476.5" y1="618.08" y2="618.08"/><text fill="#000000" font-family="sans-serif" font-size="14" lengthAdjust="spacing" textLength="4" x="463.5" y="633.0751">.</text></g><!--entity 50734f3625a518ca62d070bf23401552--><g id="elem_50734f3625a518ca62d070bf23401552"><rect fill="#F1F1F1" height="39.2969" rx="2.5" ry="2.5" style="stroke:#181818;stroke-width:0.5;" width="174" x="648.5" y="607.08"/><polygon fill="#F1F1F1" points="805.5,612.08,805.5,626.08,817.5,626.08,817.5,618.08,811.5,612.08,805.5,612.08" style="stroke:#181818;stroke-width:0.5;"/><line style="stroke:#181818;stroke-width:0.5;" x1="811.5" x2="811.5" y1="612.08" y2="618.08"/><line style="stroke:#181818;stroke-width:0.5;" x1="817.5" x2="811.5" y1="618.08" y2="618.08"/><text fill="#000000" font-family="sans-serif" font-size="14" lengthAdjust="spacing" textLength="144" x="658.5" y="633.0751">/app/node_modules/</text></g><!--entity 1cee08eb587b3272f601d81c896a65d0--><g id="elem_1cee08eb587b3272f601d81c896a65d0"><rect fill="#F1F1F1" height="39.2969" rx="2.5" ry="2.5" style="stroke:#181818;stroke-width:0.5;" width="373" x="7" y="607.08"/><polygon fill="#F1F1F1" points="363,612.08,363,626.08,375,626.08,375,618.08,369,612.08,363,612.08" style="stroke:#181818;stroke-width:0.5;"/><line style="stroke:#181818;stroke-width:0.5;" x1="369" x2="369" y1="612.08" y2="618.08"/><line style="stroke:#181818;stroke-width:0.5;" x1="375" x2="369" y1="618.08" y2="618.08"/><text fill="#000000" font-family="sans-serif" font-size="14" lengthAdjust="spacing" textLength="343" x="17" y="633.0751">${PWD}/bga_database/local_settings.py.example</text></g><!--entity feb92b07a15f19e8ca40e5606b21d49d--><g id="elem_feb92b07a15f19e8ca40e5606b21d49d"><rect fill="#F1F1F1" height="39.2969" rx="2.5" ry="2.5" style="stroke:#181818;stroke-width:0.5;" width="183" x="1082" y="607.08"/><polygon fill="#F1F1F1" points="1248,612.08,1248,626.08,1260,626.08,1260,618.08,1254,612.08,1248,612.08" style="stroke:#181818;stroke-width:0.5;"/><line style="stroke:#181818;stroke-width:0.5;" x1="1254" x2="1254" y1="612.08" y2="618.08"/><line style="stroke:#181818;stroke-width:0.5;" x1="1260" x2="1254" y1="618.08" y2="618.08"/><text fill="#000000" font-family="sans-serif" font-size="14" lengthAdjust="spacing" textLength="153" x="1092" y="633.0751">bga-pensions-db-data</text></g><!--link a8e1d907ab99a1fa5c52a79c804bdcd2 to 3ef9b52d9eb49b7db9d6a3e84fef0d1c--><g id="link_a8e1d907ab99a1fa5c52a79c804bdcd2_3ef9b52d9eb49b7db9d6a3e84fef0d1c"><path codeLine="42" d="M678.87,165.73 C647.19,199.38 609.86,239.04 594.57,255.28 " fill="none" id="a8e1d907ab99a1fa5c52a79c804bdcd2-3ef9b52d9eb49b7db9d6a3e84fef0d1c" style="stroke:#181818;stroke-width:1.0;"/></g><!--link 3ef9b52d9eb49b7db9d6a3e84fef0d1c to 1624c420083928ef3e240dd88f2e52f0--><g id="link_3ef9b52d9eb49b7db9d6a3e84fef0d1c_1624c420083928ef3e240dd88f2e52f0"><path codeLine="43" d="M581.9,272.71 C565.14,296.42 515.52,366.64 498.95,390.07 " fill="none" id="3ef9b52d9eb49b7db9d6a3e84fef0d1c-1624c420083928ef3e240dd88f2e52f0" style="stroke:#181818;stroke-width:1.0;"/></g><!--link b946d8b8a8e75fff7846593951ac6a21 to 58b9e70b65a77700ba66e9c64d6b9f89--><g id="link_b946d8b8a8e75fff7846593951ac6a21_58b9e70b65a77700ba66e9c64d6b9f89"><path codeLine="44" d="M564.26,528.38 C543.18,550.26 508.75,586.01 488,607.56 " fill="none" id="b946d8b8a8e75fff7846593951ac6a21-58b9e70b65a77700ba66e9c64d6b9f89" style="stroke:#181818;stroke-width:1.0;"/><text fill="#000000" font-family="sans-serif" font-size="13" lengthAdjust="spacing" textLength="14" x="533.5" y="573.1469">rw</text></g><!--link a8e1d907ab99a1fa5c52a79c804bdcd2 to b946d8b8a8e75fff7846593951ac6a21--><g id="link_a8e1d907ab99a1fa5c52a79c804bdcd2_b946d8b8a8e75fff7846593951ac6a21"><path codeLine="45" d="M709.92,166.03 C676.24,256.26 613.0584,425.5589 591.6084,483.0189 " fill="none" id="a8e1d907ab99a1fa5c52a79c804bdcd2-to-b946d8b8a8e75fff7846593951ac6a21" style="stroke:#181818;stroke-width:1.0;stroke-dasharray:7.0,7.0;"/><polygon fill="#181818" points="589.51,488.64,596.405,481.6073,591.2586,483.9557,588.9102,478.8094,589.51,488.64" style="stroke:#181818;stroke-width:1.0;"/><text fill="#000000" font-family="sans-serif" font-size="13" lengthAdjust="spacing" textLength="23" x="651.5" y="335.8569">use</text></g><!--link 0d7526d5bb9869748d67ebbe34dc8fb3 to 50734f3625a518ca62d070bf23401552--><g id="link_0d7526d5bb9869748d67ebbe34dc8fb3_50734f3625a518ca62d070bf23401552"><path codeLine="46" d="M735.5,528.38 C735.5,550 735.5,585.17 735.5,606.8 " fill="none" id="0d7526d5bb9869748d67ebbe34dc8fb3-50734f3625a518ca62d070bf23401552" style="stroke:#181818;stroke-width:1.0;"/></g><!--link a8e1d907ab99a1fa5c52a79c804bdcd2 to 0d7526d5bb9869748d67ebbe34dc8fb3--><g id="link_a8e1d907ab99a1fa5c52a79c804bdcd2_0d7526d5bb9869748d67ebbe34dc8fb3"><path codeLine="47" d="M731.2,166.03 C732.33,256.26 734.4648,425.1805 735.1848,482.6405 " fill="none" id="a8e1d907ab99a1fa5c52a79c804bdcd2-to-0d7526d5bb9869748d67ebbe34dc8fb3" style="stroke:#181818;stroke-width:1.0;stroke-dasharray:7.0,7.0;"/><polygon fill="#181818" points="735.26,488.64,739.1469,479.5906,735.1974,483.6404,731.1475,479.6908,735.26,488.64" style="stroke:#181818;stroke-width:1.0;"/><text fill="#000000" font-family="sans-serif" font-size="13" lengthAdjust="spacing" textLength="23" x="733.5" y="335.8569">use</text></g><!--link 5f4b743f1a4d659171f9d31f4fd8bcdf to 58b9e70b65a77700ba66e9c64d6b9f89--><g id="link_5f4b743f1a4d659171f9d31f4fd8bcdf_58b9e70b65a77700ba66e9c64d6b9f89"><path codeLine="48" d="M411.9,528.38 C424.92,550 446.09,585.17 459.1,606.8 " fill="none" id="5f4b743f1a4d659171f9d31f4fd8bcdf-58b9e70b65a77700ba66e9c64d6b9f89" style="stroke:#181818;stroke-width:1.0;"/><text fill="#000000" font-family="sans-serif" font-size="13" lengthAdjust="spacing" textLength="14" x="440.5" y="573.1469">rw</text></g><!--link e6abfc52d9acbb9035ccfeb39be7d55f to 5f4b743f1a4d659171f9d31f4fd8bcdf--><g id="link_e6abfc52d9acbb9035ccfeb39be7d55f_5f4b743f1a4d659171f9d31f4fd8bcdf"><path codeLine="49" d="M260.36,157.94 C295.41,245.34 366.9171,423.681 390.6971,482.991 " fill="none" id="e6abfc52d9acbb9035ccfeb39be7d55f-to-5f4b743f1a4d659171f9d31f4fd8bcdf" style="stroke:#181818;stroke-width:1.0;stroke-dasharray:7.0,7.0;"/><polygon fill="#181818" points="392.93,488.56,393.2934,478.7178,391.0693,483.9191,385.868,481.695,392.93,488.56" style="stroke:#181818;stroke-width:1.0;"/><text fill="#000000" font-family="sans-serif" font-size="13" lengthAdjust="spacing" textLength="23" x="333.5" y="335.8569">use</text></g><!--link d2a21ede15a17732e0be9ba655f1887a to 1cee08eb587b3272f601d81c896a65d0--><g id="link_d2a21ede15a17732e0be9ba655f1887a_1cee08eb587b3272f601d81c896a65d0"><path codeLine="50" d="M193.5,528.38 C193.5,550 193.5,585.17 193.5,606.8 " fill="none" id="d2a21ede15a17732e0be9ba655f1887a-1cee08eb587b3272f601d81c896a65d0" style="stroke:#181818;stroke-width:1.0;"/><text fill="#000000" font-family="sans-serif" font-size="13" lengthAdjust="spacing" textLength="14" x="194.5" y="573.1469">rw</text></g><!--link e6abfc52d9acbb9035ccfeb39be7d55f to d2a21ede15a17732e0be9ba655f1887a--><g id="link_e6abfc52d9acbb9035ccfeb39be7d55f_d2a21ede15a17732e0be9ba655f1887a"><path codeLine="51" d="M235.81,157.94 C225.23,245.34 203.6811,423.2935 196.5011,482.6035 " fill="none" id="e6abfc52d9acbb9035ccfeb39be7d55f-to-d2a21ede15a17732e0be9ba655f1887a" style="stroke:#181818;stroke-width:1.0;stroke-dasharray:7.0,7.0;"/><polygon fill="#181818" points="195.78,488.56,200.8326,480.106,196.3809,483.5962,192.8906,479.1445,195.78,488.56" style="stroke:#181818;stroke-width:1.0;"/><text fill="#000000" font-family="sans-serif" font-size="13" lengthAdjust="spacing" textLength="23" x="216.5" y="335.8569">use</text></g><!--link 1937b891a66790c564b2ee94fcc89c00 to 9c41b0dc0d9393d8a4c1a8e0ff9f1547--><g id="link_1937b891a66790c564b2ee94fcc89c00_9c41b0dc0d9393d8a4c1a8e0ff9f1547"><path codeLine="52" d="M1224.18,173.99 C1249.58,205.62 1277.44,240.3 1289.45,255.25 " fill="none" id="1937b891a66790c564b2ee94fcc89c00-9c41b0dc0d9393d8a4c1a8e0ff9f1547" style="stroke:#181818;stroke-width:1.0;"/></g><!--link 9c41b0dc0d9393d8a4c1a8e0ff9f1547 to 6b526155c1fdb850ad4b5277834fa502--><g id="link_9c41b0dc0d9393d8a4c1a8e0ff9f1547_6b526155c1fdb850ad4b5277834fa502"><path codeLine="53" d="M1304.37,272.71 C1330.94,296.42 1409.6,366.64 1435.86,390.07 " fill="none" id="9c41b0dc0d9393d8a4c1a8e0ff9f1547-6b526155c1fdb850ad4b5277834fa502" style="stroke:#181818;stroke-width:1.0;"/></g><!--link be37e40b068362ad529067845ac94bd0 to feb92b07a15f19e8ca40e5606b21d49d--><g id="link_be37e40b068362ad529067845ac94bd0_feb92b07a15f19e8ca40e5606b21d49d"><path codeLine="54" d="M1173.5,528.38 C1173.5,550 1173.5,585.17 1173.5,606.8 " fill="none" id="be37e40b068362ad529067845ac94bd0-feb92b07a15f19e8ca40e5606b21d49d" style="stroke:#181818;stroke-width:1.0;"/><text fill="#000000" font-family="sans-serif" font-size="13" lengthAdjust="spacing" textLength="14" x="1174.5" y="573.1469">rw</text></g><!--link 1937b891a66790c564b2ee94fcc89c00 to be37e40b068362ad529067845ac94bd0--><g id="link_1937b891a66790c564b2ee94fcc89c00_be37e40b068362ad529067845ac94bd0"><path codeLine="55" d="M1173.5,174.17 C1173.5,266.22 1173.5,426.22 1173.5,482.32 " fill="none" id="1937b891a66790c564b2ee94fcc89c00-to-be37e40b068362ad529067845ac94bd0" style="stroke:#181818;stroke-width:1.0;stroke-dasharray:7.0,7.0;"/><polygon fill="#181818" points="1173.5,488.32,1177.5,479.32,1173.5,483.32,1169.5,479.32,1173.5,488.32" style="stroke:#181818;stroke-width:1.0;"/><text fill="#000000" font-family="sans-serif" font-size="13" lengthAdjust="spacing" textLength="23" x="1174.5" y="335.8569">use</text></g><!--SRC=[bLHDYnj74BtFhnX43ic2fEhlRe433cko5-Cbtf132AAwkreHw2kQMQ-DyNzFQQHnTjS9dRqCmqnrrNklNptSRFOFs_N7zMxLxFQPsidhms7IOjTcYSRb9BBtgcGfIWp121j2BawavDhFJPlssyD-Hxk-HKyY1t38LIWAccGakf0yw9XJbktlpTLLNE7qGBjklTzrLrTDizxYYXRjwizqdAttyumzRZ7J_77TOeCzTNrpv0SU-qMBcmVyr3ND7yttFxGJ3m03N4KbH2DpeAX3T3c6R56HruKAP94QFhmkcFfsCiSBnHYqpJvw1kzCASLvRKrGJ1EJHIcUdPcV15fkz_b-Gzryw03P6McpYJ5u6vpssJgAaPJEoPUecYyNLT-kLqVicT1vi5Q1uKO2rCbR6urEJeN0IAKWzKnRiXXBEd73n8D0cPGAHHKYkMnC-KRRwNQSzbALMTL_qSaK7PrMHQ3EB91meeIiHD65rKkvFDU9EozFOo9sDD_i4swM7VKzUwoR7JwDxcAccOH1uPoI1952HCjqXFSElmftk-_w5L_-S8eyQc-DyaQGzCc630Qi0PPQEfRegMuYA1Tz46Yj2v2CrL4I1LrIyY41VAlRuJBiaMpZfuM0XdOVriVzRilD5-tjk_TtF__ovlto-gTN9y9Za_-ekk6NvUjVxswMRz_StRoxVjKVxy-2dsnij983mv2qY90JPFQXoimt2ROdb1AACDezble37kURTPoF4F_Q39TxTXYxY3H4i5vPYTd809RzRJ05taXWVP-iZx1I9oq1l0hIKr4aDMJU_IB9o093jUB_OYXdnqehZ4cYvEWDODRynJclDEy-o4SmPsSB-HZ8GRG6dNC0VDMMGh9ig1YA3_LLC-2uEPCnQ8HFQ6K6RbYaqi187e_yxlFjRzTVAZQSqKVS7ZPqff-8m5CqtaKbdImMEFW4-yIo9rckVve_CKoEqw-Iyqe66Ja21Niu44FKGCQ2ZL9a7N9JpSXfdjPph5OmTAbUPotwXYwrIsiNxUJuCAaJcytoRFPZDMzF_UuxcZIrM3sZgnhYVyAgJXjXrNBmHQ9LK_s2hZfqH5UBrBCnAaP_ARhgq15TDOnFwAhfLoiOkbJ3gHQEGvVQEezALOcDvgyDlIZrDm00]--></g></svg>